<?xml version="1.0" encoding="utf-8"?>
<!-- Generator: Adobe Illustrator 16.0.0, SVG Export Plug-In . SVG Version: 6.00 Build 0)  -->
<!DOCTYPE svg PUBLIC "-//W3C//DTD SVG 1.1//EN" "http://www.w3.org/Graphics/SVG/1.1/DTD/svg11.dtd">
<svg version="1.1" xmlns="http://www.w3.org/2000/svg" xmlns:xlink="http://www.w3.org/1999/xlink" x="0px" y="0px"
	 width="283.464px" height="283.464px" viewBox="0 0 283.464 283.464" enable-background="new 0 0 283.464 283.464"
	 xml:space="preserve">
<g id="Layer_1">
</g>
<g id="Layer_2">
	<path fill-rule="evenodd" clip-rule="evenodd" fill="#005E7C" d="M-448.235-542.48c-1.464-12.748,7.141-23.515,18.914-23.604
		c32.476-0.248,64.958-0.183,97.434-0.032c9.54,0.046,18.174,7.512,19.216,17.104c0.804,7.385,0.159,14.927,0.159,23.145
		c-18.069-18.284-39.676-29.903-65.074-33.41C-402.896-562.773-427.114-560.325-448.235-542.48z"/>
	<path fill-rule="evenodd" clip-rule="evenodd" fill="#FFFFFF" d="M-417.823-523.162c-9.186,18.995-5.358,34.205,12.982,47.681
		c16.097,11.831,34.172,15.199,53.564,10.747c7.64-1.755,14.209-5.779,18.825-12.313c6.813-9.646,6.272-21.637-0.967-32.68
		c-6.483-9.885-15.942-15.837-26.367-20.619c-0.743-0.339-1.47-0.712-2.688-1.31c17.677,2.38,45.293,20.698,46.839,47.069
		c0.683,11.652-7.848,25.028-20.068,30.33c-19.925,8.643-39.68,6.966-58.879-2.334c-11.706-5.67-21.732-13.465-28.303-25.125
		c-7.78-13.803-6.645-28.939,3.253-39.874C-419.097-522.177-418.427-522.64-417.823-523.162z"/>
	<path fill-rule="evenodd" clip-rule="evenodd" fill="#FFFFFF" d="M-383.134-481.941c-9.312-0.392-26.042-11.706-26.781-25.833
		c-0.405-7.749,4.575-14.921,12.891-18.322c15.354-6.276,38.155,0.634,47.33,14.344c5.508,8.234,5.312,17.501-1.014,23.716
		c2.396-10.537-2.453-17.373-10.423-22.267c-8.302-5.096-17.278-6.937-26.622-2.827c-9.889,4.351-12.244,14.176-5.194,22.447
		C-390.106-487.348-386.37-484.777-383.134-481.941z"/>
	<g>
		<path fill="none" d="M-369.235-502.308c-1.458-0.701-3.021-1.07-4.518-1.07c-2.566,0-4.606,1.056-5.458,2.824
			c-0.643,1.338-0.546,2.964,0.273,4.585c0.898,1.782,2.529,3.306,4.588,4.299c1.458,0.698,3.021,1.07,4.518,1.07
			c2.567,0,4.607-1.056,5.458-2.825C-362.965-496.356-365.145-500.34-369.235-502.308z"/>
		<g>
			<path fill="#005E7C" d="M-311.773-504.941c0.05-4.015-1.265-6.895-3.913-9.73c-13.502-14.457-30.039-23.876-49.21-27.817
				c-17.628-3.625-35.533-4.102-52.381,3.938c-14.224,6.786-24.841,17.072-26.8,33.559c-1.559,13.112,2.461,25.109,10.365,35.547
				c12.289,16.233,28.862,26.3,48.16,32.147c3.423,1.036,6.899,1.894,10.351,2.835c-20.814,0.8-50.544-7.742-73.517-36.32
				c0,6.367,0.397,11.881-0.076,17.313c-1.321,15.159,11.34,24.468,24.113,24.242c29.314-0.52,58.649-0.525,87.963-0.003
				c13.281,0.238,25.309-8.109,24.935-25.233C-312.153-471.283-311.989-488.119-311.773-504.941z M-397.024-526.096
				c15.354-6.276,38.155,0.634,47.33,14.344c5.508,8.234,5.312,17.501-1.014,23.716c2.396-10.537-2.453-17.373-10.423-22.267
				c-8.302-5.096-17.278-6.937-26.622-2.827c-9.889,4.351-12.244,14.176-5.194,22.447c2.841,3.335,6.577,5.906,9.813,8.742
				c-9.312-0.392-26.042-11.706-26.781-25.833C-410.32-515.523-405.341-522.695-397.024-526.096z M-354.946-493.863
				c-0.668,6.773-6.306,11.796-14.514,11.013c-5.519-0.524-12.251-3.011-16.019-6.468c-3.881-3.559-6.853-7.357-5.792-12.809
				c1.116-5.736,5.604-8.051,10.842-8.844c8.5-1.288,15.908,1.325,21.608,7.668C-356.843-501.102-354.734-496.612-354.946-493.863z
				 M-335.702-454.256c-19.925,8.643-39.68,6.966-58.879-2.334c-11.706-5.67-21.732-13.465-28.303-25.125
				c-7.78-13.803-6.645-28.939,3.253-39.874c0.534-0.588,1.203-1.051,1.807-1.572c-9.186,18.995-5.358,34.205,12.982,47.681
				c16.097,11.831,34.172,15.199,53.564,10.747c7.64-1.755,14.209-5.779,18.825-12.313c6.813-9.646,6.272-21.637-0.967-32.68
				c-6.483-9.885-15.942-15.837-26.367-20.619c-0.743-0.339-1.47-0.712-2.688-1.31c17.677,2.38,45.293,20.698,46.839,47.069
				C-314.951-472.934-323.481-459.558-335.702-454.256z"/>
		</g>
	</g>
</g>
<g id="Layer_3">
	<g>
		<path fill="#005E7C" d="M-364.718-501.025c-3.099-3.447-7.28-4.936-11.918-4.232c-4.646,0.704-6.11,3.372-6.521,5.486
			c-0.67,3.446,1.286,5.788,3.288,7.623c2.289,2.104,6.031,3.302,8.722,3.558c0.327,0.03,0.604,0.067,0.955,0.045
			c4.166,0,7.349-2.771,7.742-6.771C-362.31-497.125-363.519-499.688-364.718-501.025z M-370.192-491.356L-370.192-491.356
			c-0.223,0-0.453-0.012-0.689-0.034c-2.588-0.246-5.569-1.435-7.087-2.829c-2.106-1.93-2.764-3.291-2.429-5.016
			c0.243-1.251,0.938-2.751,4.182-3.243c0.622-0.095,1.237-0.142,1.828-0.142c2.958,0,5.507,1.168,7.578,3.474
			c0.822,0.916,1.622,2.772,1.558,3.583C-365.499-493.046-367.483-491.356-370.192-491.356z"/>
	</g>
	<g>
		<path fill="#005E7C" d="M-279.834-432.657l46.639-130.156h43.386l46.64,130.156h-42.479l-5.064-17.175h-42.482l-4.881,17.175
			H-279.834z M-211.863-523.585l-13.195,46.64h26.934L-211.863-523.585z"/>
		<path fill="#005E7C" d="M-87.485-478.032v45.375h-42.665v-130.156h61.467c43.383,0,57.665,11.751,57.665,37.056
			c0,15.007-6.688,27.658-21.874,31.819c13.741,5.061,22.057,8.314,22.057,34.525c0,16.996-0.545,22.78,4.52,22.78v3.976h-43.206
			c-1.086-2.893-2.171-11.208-2.171-22.777c0-16.992-2.891-22.598-22.775-22.598H-87.485z M-87.485-506.593h16.813
			c13.193,0,20.243-3.255,20.243-12.29c0-9.222-7.229-13.559-17.172-13.559h-19.885V-506.593z"/>
		<path fill="#005E7C" d="M93.295-513.099c-1.266-13.559-9.764-21.332-23.139-21.332c-15.006,0-24.045,12.835-24.045,37.963
			c0,18.257,3.979,35.432,25.668,35.432c13.742,0,20.25-9.583,21.875-22.056h41.033c-3.795,33.625-27.834,53.869-62.184,53.869
			c-43.023,0-69.055-26.394-69.055-68.693c0-42.12,28.563-68.334,64.896-68.334c39.773,0,62.006,19.708,65.441,53.151H93.295z"/>
		<path fill="#005E7C" d="M153.861-432.657v-130.156h106.111v30.371h-63.453v18.619h53.693v30.368h-53.693v20.429h65.982v30.369
			H153.861z"/>
		<path fill="#005E7C" d="M369.523-491.77l-1.627-29.647v-41.396h40.852v130.156h-39.949l-46.457-70.861l1.625,29.645v41.217
			h-40.854v-130.156h39.953L369.523-491.77z"/>
	</g>
	<g>
		<path fill="none" d="M143.818,136.491c0.5-1.039,1.242-1.93,2.146-2.684c-3.145,1.273-4.006,3.341-4.354,5.137
			c-0.625,3.208,0.6,5.741,4.518,9.331c0.448,0.413,0.986,0.811,1.561,1.198c-1.401-1.33-2.548-2.833-3.363-4.454
			C142.802,142.004,142.623,138.98,143.818,136.491z"/>
		<path fill="none" d="M141.552,117.111c-9.748,1.476-18.097,5.781-20.173,16.454c-1.974,10.143,3.556,17.211,10.776,23.832
			c7.009,6.432,19.536,11.058,29.805,12.031c15.27,1.457,25.761-7.886,27.004-20.488c0.392-5.116-3.529-13.471-7.21-17.563
			C171.15,119.575,157.367,114.713,141.552,117.111z M160.597,158.832c-0.654,0.044-1.17-0.025-1.776-0.083
			c-5.008-0.477-11.971-2.704-16.229-6.617c-3.725-3.416-7.362-7.773-6.115-14.184c0.763-3.936,3.488-8.899,12.131-10.208
			c8.629-1.308,16.409,1.461,22.175,7.875c2.232,2.485,4.48,7.253,4.221,10.622C174.268,153.676,168.348,158.832,160.597,158.832z"
			/>
		<path fill="#005E7C" d="M146.839,27.229c47.256,6.522,87.454,28.142,121.075,62.162c0-15.292,1.199-29.322-0.298-43.063
			c-1.937-17.846-18.002-31.738-35.751-31.822c-60.425-0.279-120.86-0.403-181.283,0.059c-21.904,0.167-37.915,20.201-35.189,43.92
			C54.69,25.281,99.751,20.729,146.839,27.229z"/>
		<path fill="none" d="M160.597,153.604c5.041,0,8.732-3.144,9.192-7.828c0.118-1.508-1.368-4.96-2.898-6.664
			c-3.854-4.292-8.598-6.465-14.1-6.465c-1.101,0-2.245,0.087-3.401,0.265c-1.377,0.209-2.496,0.521-3.427,0.896
			c-0.903,0.754-1.646,1.645-2.146,2.684c-1.195,2.489-1.016,5.513,0.507,8.528c0.815,1.621,1.962,3.124,3.363,4.454
			c3.03,2.051,7.576,3.683,11.627,4.067C159.754,153.581,160.181,153.604,160.597,153.604z"/>
		<path fill="#005E7C" d="M269.289,128.329c0.095-7.472-2.352-12.828-7.279-18.104c-25.121-26.898-55.89-44.425-91.561-51.758
			c-32.8-6.745-66.111-7.631-97.458,7.326c-26.466,12.628-46.22,31.764-49.865,62.438c-2.9,24.397,4.579,46.718,19.286,66.138
			c22.865,30.205,53.702,48.935,89.605,59.814c6.368,1.926,12.835,3.521,19.258,5.272c-38.725,1.49-94.041-14.405-136.783-67.576
			c0,11.846,0.738,22.104-0.142,32.215c-2.457,28.202,21.099,45.521,44.865,45.104c54.54-0.966,109.12-0.978,163.661-0.007
			c24.711,0.443,47.089-15.088,46.392-46.947C268.583,190.953,268.889,159.628,269.289,128.329z M110.675,88.967
			c28.566-11.676,70.989,1.181,88.061,26.688c10.247,15.32,9.881,32.563-1.887,44.127c4.459-19.605-4.563-32.324-19.394-41.431
			c-15.444-9.481-32.146-12.904-49.53-5.259c-18.399,8.093-22.781,26.375-9.667,41.765c5.288,6.203,12.239,10.989,18.259,16.266
			c-17.325-0.73-48.453-21.781-49.829-48.065C85.935,108.641,95.202,95.297,110.675,88.967z M188.964,148.94
			c-1.243,12.603-11.734,21.945-27.004,20.488c-10.27-0.974-22.796-5.6-29.805-12.031c-7.221-6.621-12.75-13.689-10.776-23.832
			c2.077-10.673,10.425-14.979,20.173-16.454c15.814-2.398,29.598,2.464,40.202,14.267
			C185.435,135.47,189.356,143.824,188.964,148.94z M224.769,222.63c-37.073,16.08-73.829,12.962-109.548-4.343
			c-21.782-10.549-40.435-25.052-52.66-46.747c-14.476-25.681-12.364-53.844,6.052-74.187c0.994-1.094,2.239-1.955,3.363-2.926
			c-17.092,35.341-9.972,63.642,24.155,88.712c29.947,22.015,63.579,28.279,99.661,19.998c14.212-3.268,26.437-10.753,35.023-22.912
			c12.679-17.944,11.672-40.257-1.799-60.803c-12.061-18.392-29.66-29.465-49.057-38.364c-1.383-0.628-2.734-1.322-5.002-2.435
			c32.891,4.427,84.271,38.509,87.149,87.574C263.376,187.879,247.506,212.768,224.769,222.63z"/>
		<path fill="#005E7C" d="M170.782,135.615c-5.766-6.414-13.546-9.183-22.175-7.875c-8.643,1.309-11.368,6.272-12.131,10.208
			c-1.247,6.41,2.391,10.768,6.115,14.184c4.259,3.913,11.222,6.141,16.229,6.617c0.606,0.058,1.122,0.127,1.776,0.083
			c7.751,0,13.671-5.156,14.405-12.595C175.262,142.868,173.014,138.101,170.782,135.615z M146.127,148.275
			c-3.918-3.59-5.143-6.123-4.518-9.331c0.348-1.796,1.209-3.863,4.354-5.137c0.931-0.376,2.05-0.688,3.427-0.896
			c1.156-0.178,2.301-0.265,3.401-0.265c5.502,0,10.246,2.173,14.1,6.465c1.53,1.704,3.017,5.156,2.898,6.664
			c-0.46,4.685-4.151,7.828-9.192,7.828c-0.416,0-0.843-0.022-1.282-0.063c-4.051-0.385-8.597-2.017-11.627-4.067
			C147.114,149.086,146.576,148.688,146.127,148.275z"/>
	</g>
</g>
</svg>
